 <svg viewBox="365.2858 94.3645 214.3469 195.7795" width="54" height="54" xmlns="http://www.w3.org/2000/svg">
      <path d="M 473.411 98.803 C 473.988 98.804 473.988 98.804 474.576 98.805 C 480.277 98.823 485.825 99.008 491.435 100.014 C 491.97 100.103 491.97 100.103 492.515 100.193 C 511.427 103.34 528.534 111.561 542.664 123.424 C 543.364 124.004 544.073 124.552 544.812 125.089 C 545.975 126.017 546.938 126.999 547.932 128.074 C 548.789 128.986 549.682 129.856 550.578 130.734 C 562.576 142.884 570.312 158.41 573.898 174.391 C 573.956 174.65 574.016 174.911 574.076 175.179 C 575.263 180.899 575.514 186.617 575.49 192.425 C 575.489 192.956 575.489 192.956 575.487 193.497 C 575.469 198.738 575.267 203.838 574.171 208.996 C 574.107 209.325 574.044 209.652 573.977 209.991 C 570.556 227.377 561.613 243.104 548.71 256.096 C 548.079 256.741 547.483 257.391 546.899 258.07 C 545.891 259.14 544.822 260.025 543.651 260.94 C 542.661 261.726 541.713 262.55 540.759 263.373 C 527.545 274.403 510.655 281.515 493.274 284.812 C 492.991 284.867 492.708 284.921 492.418 284.976 C 486.196 286.067 479.976 286.298 473.659 286.276 C 473.273 286.275 472.888 286.274 472.492 286.274 C 466.797 286.254 461.234 286.109 455.635 285.064 C 455.032 284.955 455.032 284.955 454.417 284.843 C 444.311 282.974 433.45 280.251 424.71 275.047 C 422.502 274.043 420.387 274.839 418.138 275.513 C 417.421 275.725 417.421 275.725 416.69 275.943 C 416.172 276.098 415.655 276.255 415.137 276.41 C 414.591 276.574 414.045 276.737 413.498 276.899 C 412.056 277.329 410.614 277.764 409.173 278.197 C 407.754 278.623 406.334 279.046 404.914 279.471 C 404.351 279.639 403.788 279.808 403.227 279.976 C 402.098 280.312 400.973 280.648 399.844 280.983 C 397.295 281.743 394.746 282.509 392.209 283.307 C 391.101 283.656 389.991 283.996 388.88 284.339 C 388.116 284.577 387.356 284.822 386.595 285.067 C 383.075 286.147 379.491 286.853 375.882 285.727 C 373.943 284.435 372.483 283.151 371.705 281.04 C 371.401 277.783 371.907 275.051 373.075 271.988 C 373.22 271.592 373.364 271.194 373.511 270.786 C 373.82 269.939 374.132 269.094 374.447 268.249 C 374.943 266.923 375.429 265.592 375.912 264.261 C 376.571 262.448 377.233 260.634 377.896 258.823 C 379.208 255.239 380.493 251.65 381.754 248.052 C 382.115 247.025 382.483 246.001 382.852 244.976 C 383.07 244.354 383.288 243.732 383.506 243.108 C 383.608 242.833 383.707 242.555 383.811 242.27 C 384.674 239.764 384.309 238.21 383.011 235.912 C 382.873 235.674 382.735 235.436 382.594 235.19 C 382.302 234.666 382.011 234.141 381.721 233.616 C 381.575 233.35 381.428 233.086 381.277 232.813 C 377.178 225.294 374.534 217.255 372.898 208.996 C 372.833 208.691 372.768 208.385 372.701 208.07 C 370.596 197.933 370.75 186.199 372.898 176.082 C 372.994 175.59 372.994 175.59 373.092 175.088 C 376.513 157.701 385.455 141.974 398.36 128.984 C 398.991 128.338 399.586 127.688 400.17 127.009 C 401.179 125.939 402.247 125.054 403.418 124.139 C 404.409 123.351 405.357 122.53 406.31 121.706 C 419.525 110.675 436.414 103.563 453.796 100.266 C 454.078 100.213 454.361 100.158 454.652 100.103 C 460.873 99.011 467.094 98.781 473.411 98.803 Z"
        fill="#FF0000" transform="matrix(1, 0, 0, 1, -2.842170943040401e-14, -1.4210854715202004e-14)" />
      <path d="M 519.218 183.341 C 521.809 184.782 523.862 186.924 524.827 189.57 C 525.086 192.638 525.236 195.425 523.157 197.971 C 521.243 199.998 519.025 201.668 516.031 201.881 C 512.187 201.953 509.894 201.655 506.984 199.355 C 504.348 196.542 503.808 194.559 503.841 190.916 C 504.082 188.151 505.434 186.394 507.714 184.605 C 511.01 182.435 515.386 181.675 519.218 183.341 Z"
      fill="#FFFFFF" transform="matrix(1, 0, 0, 1, -2.842170943040401e-14, -1.4210854715202004e-14)" />
      <path d="M 477.483 183.341 C 480.075 184.782 482.126 186.924 483.091 189.57 C 483.35 192.638 483.5 195.425 481.421 197.971 C 479.509 199.998 477.289 201.668 474.295 201.881 C 470.452 201.953 468.158 201.655 465.249 199.355 C 462.612 196.542 462.072 194.559 462.106 190.916 C 462.346 188.151 463.698 186.394 465.978 184.605 C 469.274 182.435 473.651 181.675 477.483 183.341 Z"
      fill="#FFFFFF" transform="matrix(1, 0, 0, 1, -2.842170943040401e-14, -1.4210854715202004e-14)" />
      <path d="M 435.747 183.341 C 438.339 184.782 440.39 186.924 441.355 189.57 C 441.614 192.638 441.764 195.425 439.685 197.971 C 437.773 199.998 435.553 201.668 432.559 201.881 C 428.716 201.953 426.422 201.655 423.513 199.355 C 420.878 196.542 420.336 194.559 420.37 190.916 C 420.61 188.151 421.964 186.394 424.244 184.605 C 427.54 182.435 431.915 181.675 435.747 183.341 Z"
      fill="#ffffff" transform="matrix(1, 0, 0, 1, -2.842170943040401e-14, -1.4210854715202004e-14)" /> 
    </svg>