<?xml version="1.0" encoding="UTF-8" standalone="no" ?>
<!DOCTYPE svg PUBLIC "-//W3C//DTD SVG 1.1//EN" "http://www.w3.org/Graphics/SVG/1.1/DTD/svg11.dtd">
<svg xmlns="http://www.w3.org/2000/svg" xmlns:xlink="http://www.w3.org/1999/xlink" version="1.1" width="1080" height="1080" viewBox="0 0 1080 1080" xml:space="preserve">
<desc>Created with Fabric.js 5.2.4</desc>
<defs>
</defs>
<g transform="matrix(1 0 0 1 540 540)" id="09e76a93-17d4-4625-a5e5-cbbf1292050f"  >
<rect style="stroke: none; stroke-width: 1; stroke-dasharray: none; stroke-linecap: butt; stroke-dashoffset: 0; stroke-linejoin: miter; stroke-miterlimit: 4; fill: rgb(176,196,19); fill-rule: nonzero; opacity: 1;" vector-effect="non-scaling-stroke"  x="-540" y="-540" rx="0" ry="0" width="1080" height="1080" />
</g>
<g transform="matrix(1 0 0 1 540 540)" id="2d909839-a399-4d5b-b7f6-5e3697c74da4"  >
</g>
<g transform="matrix(1 0 0 1 540 540)"  >
<g style="" vector-effect="non-scaling-stroke"   >
		<g transform="matrix(1 0 0 1 0 0)"  >
<path style="stroke: none; stroke-width: 1; stroke-dasharray: none; stroke-linecap: butt; stroke-dashoffset: 0; stroke-linejoin: miter; stroke-miterlimit: 4; fill: rgb(0,0,0); fill-rule: nonzero; opacity: 1;" vector-effect="non-scaling-stroke"  transform=" translate(-257, -257)" d="M 289 513 C 267.979095 513 246.958206 513 225.272247 512.742065 C 223.867004 512.152954 223.149445 511.602631 222.38324 511.52356 C 212.166809 510.469299 202.163666 508.26886 192.247482 505.724548 C 172.25882 500.595886 153.084915 493.343018 135.05307 483.205353 C 132.161346 481.57959 129.314377 480.110413 125.666389 481.404358 C 118.952728 483.785736 112.11515 485.81842 105.32531 487.984161 C 87.794678 493.575928 70.18261 498.928131 52.767708 504.859467 C 45.452133 507.351105 37.650105 508.687286 31 513 C 25.311958 513 19.623919 513 13.231676 512.768066 C 7.463416 509.480682 3.25047 505.642639 1 500 C 1 494.977905 1 489.955811 1.217707 484.19751 C 1.713677 483.047516 2.106771 482.670715 2.253818 482.21463 C 12.399738 450.742462 22.501101 419.255951 32.702381 387.801788 C 33.494408 385.35968 33.447788 383.260376 32.057499 381.186646 C 27.491117 374.375549 24.560911 366.74942 21.2526 359.325317 C 13.452909 341.822296 8.113669 323.566498 4.468571 304.753662 C 3.449437 299.493774 4.021252 293.828461 1 289 C 1 270.979095 1 252.958206 1.0005 234.065796 C 1.571544 228.099136 1.895413 222.962006 2.754141 217.915894 C 7.122028 192.248993 14.398561 167.474503 25.849955 144.011047 C 42.136585 110.640388 64.851372 82.244499 93.304451 58.587242 C 121.939095 34.779018 154.445221 18.1222 190.519867 8.602196 C 204.795471 4.834908 219.325394 2.49762 234 1 C 251.687561 1 269.375122 1 287.814575 1.206451 C 293.499695 3.514316 298.885193 3.476609 304.034149 4.387722 C 333.801392 9.655054 361.583191 20.144217 387.573425 35.409496 C 414.629456 51.300755 437.729492 71.760971 457.501404 96.141739 C 476.017853 118.974403 489.936249 144.26149 499.655396 171.937897 C 506.722961 192.063599 510.953491 212.796219 513 234 C 513 249.020889 513 264.041779 512.987183 279.933929 C 511.5737 293.313171 509.693787 305.73172 506.736145 317.987946 C 499.004242 350.02829 485.496735 379.397186 466.45874 406.282196 C 453.32666 424.826904 437.758423 441.158783 420.381561 455.628662 C 401.807587 471.095428 381.301483 483.665131 358.970306 493.152679 C 341.50351 500.573578 323.509277 506.095734 304.838654 509.588409 C 299.550171 510.577728 293.972687 510.478241 289 513 M 309.225281 48.491913 C 284.826996 42.239265 260.09024 40.948227 235.084717 43.336567 C 210.388016 45.695412 186.986099 52.439869 164.607788 63.17131 C 135.028 77.356201 110.228394 97.424973 89.549301 122.749901 C 76.30011 138.975693 65.952057 156.933273 57.942966 176.243408 C 50.071758 195.221085 45.135906 214.930313 43.280491 235.433701 C 41.398712 256.228394 41.904678 276.887115 45.909721 297.411041 C 50.729836 322.111816 59.732372 345.226837 72.584183 366.828491 C 77.581146 375.227509 78.565697 383.711823 75.417778 393.081757 C 68.750595 412.926941 62.517101 432.917847 56.099102 452.846802 C 55.502182 454.700348 54.464214 456.507996 55.56786 458.508545 C 57.539284 459.448578 59.181301 458.425537 60.88129 457.880859 C 80.983879 451.440033 101.108047 445.065552 121.179398 438.52887 C 129.318787 435.878052 137.046188 435.768036 144.71051 440.206146 C 157.245041 447.464447 170.129715 454.158844 183.747543 459.08078 C 214.502548 470.196655 246.227005 473.908752 278.826538 470.715424 C 298.818054 468.757172 318.094391 464.069916 336.6185 456.493469 C 372.929352 441.642242 403.079437 418.644562 427.171906 387.592499 C 453.284515 353.936707 468.08902 315.770081 471.368591 273.551849 C 473.76825 242.660583 469.708984 212.332596 458.760986 182.97525 C 445.431702 147.232315 424.039459 117.240135 395.197815 92.722038 C 370.320251 71.573784 341.85965 56.716312 309.225281 48.491913 z" stroke-linecap="round" />
</g>
		<g transform="matrix(1 0 0 1 -0.08 0.06)"  >
<path style="stroke: none; stroke-width: 1; stroke-dasharray: none; stroke-linecap: butt; stroke-dashoffset: 0; stroke-linejoin: miter; stroke-miterlimit: 4; fill: rgb(0,0,0); fill-rule: nonzero; opacity: 1;" vector-effect="non-scaling-stroke"  transform=" translate(-256.92, -257.06)" d="M 277.290955 240.794312 C 285.257202 251.55751 283.932068 267.956207 274.934967 276.158142 C 265.561798 284.702911 248.38002 284.871979 238.907455 275.898407 C 232.06044 269.412109 229.267136 256.671722 232.865677 247.222946 C 236.559723 237.523392 245.332001 231.848633 256.030212 231.535507 C 264.566071 231.285675 271.671265 233.713623 277.290955 240.794312 z" stroke-linecap="round" />
</g>
		<g transform="matrix(1 0 0 1 99.93 -0.03)"  >
<path style="stroke: none; stroke-width: 1; stroke-dasharray: none; stroke-linecap: butt; stroke-dashoffset: 0; stroke-linejoin: miter; stroke-miterlimit: 4; fill: rgb(0,0,0); fill-rule: nonzero; opacity: 1;" vector-effect="non-scaling-stroke"  transform=" translate(-356.93, -256.97)" d="M 361.586853 282.36908 C 348.836456 283.635254 338.816345 279.800018 333.70282 268.052124 C 325.727753 249.730042 338.286194 231.290253 356.670319 231.346115 C 370.529144 231.388229 380.934906 241.29924 382.266144 251.832184 C 384.318909 268.073914 377.023682 278.815674 361.586853 282.36908 z" stroke-linecap="round" />
</g>
		<g transform="matrix(1 0 0 1 -99.96 0.06)"  >
<path style="stroke: none; stroke-width: 1; stroke-dasharray: none; stroke-linecap: butt; stroke-dashoffset: 0; stroke-linejoin: miter; stroke-miterlimit: 4; fill: rgb(0,0,0); fill-rule: nonzero; opacity: 1;" vector-effect="non-scaling-stroke"  transform=" translate(-157.04, -257.06)" d="M 135.374725 271.358917 C 126.33886 255.189331 133.418152 236.546371 148.872726 232.514435 C 163.277298 228.756439 177.239426 233.78241 181.418716 248.94429 C 185.555923 263.953552 179.527023 277.816284 164.52948 281.568634 C 153.608032 284.301147 143.929535 283.145844 135.374725 271.358917 z" stroke-linecap="round" />
</g>
</g>
</g>
</svg>